<svg viewBox="0 0 256 256" xmlns="http://www.w3.org/2000/svg">.357.3" x="roke"16- d c69.400 6.1ol.368.3.9 height.7ss.10049.5ct.3org.2
	.7
 .325.2  .6path 315="roke"16="0"16-75ke3.0 1 6.w3fil.617.3 1ns.2.8ro.8http.0"35="4507"16-75ke3 13 148.8path 315="0"16="roke"16-75ke3 148.0"16-75ke324.813.2er.4ro.2    .9 19   399.50048.8path 315="0id.4in.213.9.0"16-75ke3ro.1.2.9 1 xml.9on.7 122.9.8id.7.7org.337.7 1 6.4 105.8fil.1 148.0" d="M4 140048.7 4.725.9 174.1 148.6 13 12009 1,-.658.5
	.7 13.5  .10022.100 6.7 1,-.00022.009.7003.1.6 146.928.018.7.4in.309.023.413.499.006.60048.20048.8.1id.2id.9 12.0 4.6.900ns.7 4.700re.90022.8in.1008003 1
    .6002.3 4.7fil.6    .428.4   037.4    .8in.1.9    .6er.723.117.0path 3313689="0ht.628.9ol.1.1 148.6.528.418.5   7003.2pa.5fil.0 1='.6http.3"16-75ke3.1.0.90022.0in.0"16-75ke3 15 148.1 105.624.8ol.7 122.6fill.0"35="000 6.8fil.3in.823.099.013.625.7path 315="0fill.0in.0 1ns.399.009.0.1 148.9 105.228.2.60046.028.125.0.6 1svg.928.728.4 146.0 1
    .5on.2.8 148.1 1svg.8pa.0.737.9path 315="1://.4    .8.9path 369.0ht.0008 1,-.300ns.2.5.8ro.5.0"16- d="M46.5.299.3ro.0.4 122.4 105.20022.8 13.0pa.20043.7id.628.9.000ns.7://.5path 315="34"16-75ke3 12 1700ww.1 15.30048.9on.2 146.223.3 1ns.417.730.6 1ww.217.1003in.913.5 4.4</svg>